<svg width="70" height="61" fill="none" xmlns="http://www.w3.org/2000/svg"><path d="M42.714 1.643c-1.547.905-2.81 1.762-2.786 1.88.048.144.834 1.93 1.762 4 .929 2.072 1.738 3.93 1.81 4.12.071.19-1.262-1.072-2.953-2.81L37.5 5.69l-4.595 3.143L28.309 12l-6.357 1.786-6.357 1.785-1.476 5.477c-.81 3.023-1.476 5.523-1.5 5.571 0 .048 1.524-2.071 3.357-4.714 1.857-2.667 3.5-4.881 3.643-4.929.143-.047 3-.405 6.357-.785l6.12-.667 2.952-2.429c1.642-1.31 3.047-2.405 3.118-2.405.096 0 1.12 1.215 2.286 2.69l2.12 2.691 3.07-.285c1.667-.167 3.072-.286 3.12-.31.095-.024-.167-4.5-.334-5.952-.095-.81-.071-1.024.19-.929.168.072 1.977 1.286 4.025 2.69l3.738 2.548 1.738 4.262c.952 2.357 1.738 4.238 1.786 4.19.023-.023-.524-3.095-1.239-6.833-.69-3.738-1.285-6.857-1.285-6.952 0-.095-2.334-1.786-5.167-3.786-2.857-2-5.524-3.88-5.928-4.166L45.57 0l-2.857 1.643z" fill="#fff"/><path d="M53.119 14.19c.048 1.429.31 1.81 1.62 2.381l1.237.548-.143-.524c-.476-1.428-.88-2.024-1.762-2.524l-.976-.547.024.667zm-14.286 7.524c-1.071 3.048-2.023 5.667-2.119 5.81-.095.143-.81.595-1.571 1.024-.786.404-1.762.976-2.167 1.262l-.762.523-6.524-.404c-3.595-.215-6.904-.405-7.38-.405l-.858-.024.667 3.857c.38 2.12.714 4.024.738 4.214.048.19.548-.333 1.12-1.142.928-1.334 1-1.548.761-2.096-.167-.333-.238-.666-.167-.714.048-.071 2.381.143 5.19.452l5.072.548v8.048l-4.452.095-4.476.095V39.81l-.024-3.048-.643.714a55.29 55.29 0 00-1.524 1.786l-.88 1.071-2.144.12c-2.523.142-2.428.261-1.595-2.382l.572-1.785-.524-4.429-.5-4.452-1 .904-1.024.881.262 2.715.238 2.738-.833 1.5-.857 1.5v6.095l-1.715.286c-2 .333-5.452 1.071-6.5 1.405-.476.142 1.548.166 5.834.071 8.523-.214 30.238-.214 38.571 0 4.119.119 6.357.095 6-.048-.857-.357-6.167-1.404-8.929-1.761-1.428-.191-2.619-.382-2.642-.43-.048-.023-.358-.952-.715-2.023l-.643-1.952 2.024-2.715 2.048-2.714-.024-1.88a117.034 117.034 0 00-.167-3.906l-.166-2.023-1.143 3.333-1.12 3.333L40 34.595l-2.143 1.857v3.5l-.762-.119c-.428-.095-1.166-.214-1.619-.31l-.81-.166-.547-2.595c-.286-1.453-.524-2.738-.524-2.857 0-.143 1.429-1.19 3.19-2.357C39.763 29.595 40 29.38 40 28.69c0-.405.214-3.358.452-6.572.238-3.214.429-5.857.381-5.905-.023-.023-.928 2.429-2 5.5zm9.738-1.666c0 .452.5.904 2.381 2.166 1.31.857 2.381 1.715 2.381 1.905 0 .762.81 2.762 1.167 2.857.857.238 3.833.405 3.833.238 0-.119-.428-1.285-.952-2.619l-.976-2.38-3.739-1.358c-2.047-.762-3.809-1.357-3.904-1.357-.12 0-.19.262-.19.548z" fill="#fff"/><path d="M64.286 25.976l-3.453 2.667-3.714-.381-3.714-.381-1.215-1.214c-1.071-1.072-1.333-1.215-2.214-1.215-1.143 0-1.166-.047.976 2.262.715.786 1.477 1.667 1.667 1.953.333.5.667.571 3.714.833 2.667.214 3.738.214 5-.024l1.643-.285 1.31-1.834c2.619-3.643 3.595-5.047 3.523-5.047-.047.023-1.619 1.214-3.523 2.666zm-9.858 7.119c-.238.976-.5 1.976-.619 2.238-.095.286-1.31 1.238-2.714 2.143-2.333 1.548-2.524 1.715-2.524 2.429v.762l4.62-1.572 4.618-1.571.5-2.857c.262-1.596.477-2.905.429-2.929-.024-.024-.929-.119-1.976-.214l-1.929-.167-.405 1.738zM.048 54.548l.071 5.785H2.69l.096-5.785.095-5.762H0l.048 5.762zm3.642-5.119c.072.38.739 2.976 1.5 5.785l1.381 5.12 1.334.07 1.357.072.262-1.024c.524-1.976 2.643-9.833 2.762-10.261.119-.358-.048-.405-1.19-.405h-1.31l-.334 1.119a94.14 94.14 0 00-.88 3.238c-.334 1.262-.62 1.976-.739 1.786-.095-.167-.523-1.62-.952-3.239l-.762-2.904H4.833c-1.285 0-1.31 0-1.143.643zm10.405-.191c-1.476.953-1.714 1.643-1.714 5.381 0 2.929.071 3.429.476 4.12 1 1.618 4.214 2.261 6.31 1.237 1.666-.81 2.023-1.762 2.023-5.38 0-3.405-.262-4.286-1.5-5.191-1.023-.738-4.5-.834-5.595-.167zm4.19 2.453c.191.19.286 1.19.286 2.976 0 3-.095 3.166-1.785 3.166S15 57.667 15 54.667c0-1.786.095-2.786.286-2.977.166-.166.833-.285 1.5-.285.666 0 1.333.119 1.5.285zm3.62 2.928v5.833h2.619V55.93h1.666c1.572 0 1.691.023 1.905.619.143.333.238 1.357.238 2.261v1.643h2.62v-1.904c0-1.024-.167-2.358-.358-2.929-.31-.88-.31-1.167 0-2.167.429-1.452.167-2.642-.762-3.523-1.119-1.048-1.571-1.143-4.81-1.143h-3.118v5.833zm6.143-2.548c.143.953-.334 1.239-2 1.239h-1.524v-1.93l1.738.071c1.595.072 1.714.12 1.786.62zm3.618-3.214c0 .048.596 1.453 1.31 3.12L34.286 55v5.452h2.619V55l1.31-3.024c.713-1.666 1.309-3.071 1.309-3.119 0-.047-.596-.071-1.334-.024l-1.333.072-.548 1.5c-.31.833-.595 1.571-.666 1.619-.096.095-.572-1.024-1.238-2.953-.072-.166-.572-.285-1.429-.285-.714 0-1.31.023-1.31.071zm12.144 5.762v5.833h2.619V55.93H50v4.523h2.62V48.786H50v4.523h-3.571v-4.523h-2.62v5.833zm9.523 0v5.833h2.62V48.786h-2.62v5.833zM63.572 53c0 3.619.071 4.38.452 5.214.714 1.548 1.643 2.072 4 2.19l1.976.12v-2.691h-1.5c-.857 0-1.619-.119-1.786-.285-.19-.19-.285-1.548-.285-4.524v-4.238h-2.857V53zm-6.429 0c0 3.619.071 4.38.452 5.214.715 1.548 1.643 2.072 4 2.19l1.976.12v-2.691h-1.5c-.857 0-1.619-.119-1.785-.285-.19-.19-.286-1.548-.286-4.524v-4.238h-2.857V53z" fill="#fff"/></svg>