<svg width="100" height="100" fill="none" xmlns="http://www.w3.org/2000/svg"><path d="M61.188 17.54c-2.394 1.4-4.345 2.725-4.308 2.91.073.22 1.288 2.982 2.724 6.185 1.436 3.203 2.688 6.075 2.799 6.37.11.294-1.952-1.657-4.566-4.345l-4.713-4.86-7.106 4.86-7.106 4.897-19.66 5.523-2.284 8.469c-1.251 4.676-2.282 8.542-2.32 8.616 0 .073 2.357-3.204 5.192-7.29 2.872-4.124 5.413-7.549 5.634-7.622.22-.074 4.639-.626 9.83-1.215l9.462-1.031 4.566-3.756c2.54-2.025 4.713-3.719 4.823-3.719.148 0 1.73 1.878 3.535 4.16l3.277 4.161 4.75-.441c2.577-.258 4.749-.442 4.823-.479.147-.037-.258-6.959-.516-9.205-.147-1.252-.11-1.583.295-1.436.257.11 3.055 1.988 6.222 4.16l5.78 3.94 2.688 6.591c1.473 3.645 2.688 6.554 2.762 6.48.036-.036-.81-4.786-1.915-10.567-1.068-5.78-1.988-10.604-1.988-10.751 0-.148-3.608-2.762-7.99-5.855a3238.66 3238.66 0 01-9.168-6.443L65.606 15l-4.418 2.54z" fill="#000"/><path d="M77.277 36.945c.074 2.209.479 2.798 2.504 3.682l1.914.847-.22-.81c-.737-2.21-1.363-3.13-2.725-3.903l-1.51-.847.037 1.03zM55.186 48.58c-1.657 4.713-3.13 8.763-3.277 8.984-.147.22-1.252.92-2.43 1.583-1.215.626-2.724 1.51-3.35 1.952l-1.178.81-10.089-.626c-5.56-.332-10.677-.626-11.414-.626l-1.325-.037 1.03 5.965c.59 3.277 1.106 6.222 1.142 6.517.074.294.847-.516 1.73-1.767 1.437-2.062 1.547-2.394 1.179-3.24-.258-.516-.368-1.031-.258-1.105.074-.11 3.682.22 8.027.7l7.842.846v12.445l-13.807.295v-4.713l-.037-4.713-.994 1.105c-.552.626-1.62 1.84-2.356 2.761l-1.362 1.657-3.314.184c-3.903.221-3.756.405-2.467-3.682l.884-2.761-.81-6.849-.774-6.885-1.546 1.399-1.583 1.362.405 4.198.368 4.234-1.289 2.32-1.325 2.32v9.425l-2.651.442c-3.093.516-8.431 1.657-10.051 2.173-.737.22 2.393.257 9.02.11 13.181-.331 46.76-.331 59.646 0 6.37.184 9.83.147 9.278-.074-1.325-.552-9.536-2.172-13.806-2.724-2.21-.295-4.05-.59-4.087-.663-.074-.037-.553-1.473-1.105-3.13l-.994-3.019 3.13-4.198 3.166-4.197-.037-2.909a180.996 180.996 0 00-.258-6.038l-.257-3.13-1.768 5.155-1.73 5.155L56.99 68.5l-3.314 2.871v5.413l-1.178-.184c-.662-.147-1.804-.331-2.503-.479l-1.252-.257-.847-4.014c-.442-2.246-.81-4.234-.81-4.418 0-.221 2.21-1.841 4.934-3.646 4.602-3.019 4.97-3.35 4.97-4.418 0-.626.332-5.192.7-10.162.368-4.97.663-9.058.589-9.132-.037-.036-1.436 3.756-3.093 8.506zm15.059-2.578c0 .7.773 1.4 3.682 3.351 2.025 1.326 3.682 2.651 3.682 2.946 0 1.178 1.252 4.27 1.804 4.418 1.325.368 5.928.626 5.928.368 0-.184-.663-1.988-1.473-4.05l-1.51-3.682-5.78-2.099c-3.167-1.178-5.891-2.098-6.038-2.098-.185 0-.295.405-.295.846z" fill="#000"/><path d="M94.545 55.17l-5.338 4.124-11.488-1.178-1.878-1.878c-1.656-1.657-2.061-1.877-3.424-1.877-1.767 0-1.804-.074 1.51 3.498 1.104 1.215 2.283 2.577 2.577 3.019.516.773 1.031.883 5.744 1.288 4.123.332 5.78.332 7.732-.036l2.54-.442 2.025-2.835c4.05-5.634 5.56-7.806 5.45-7.806-.074.037-2.504 1.878-5.45 4.124zM79.302 66.18c-.368 1.51-.773 3.056-.957 3.46-.147.443-2.025 1.915-4.197 3.315-3.608 2.393-3.903 2.65-3.903 3.755v1.179l14.286-4.86.773-4.42c.405-2.466.736-4.491.662-4.528-.036-.037-1.435-.184-3.055-.331l-2.983-.258-.626 2.688z" fill="#000"/></svg>